/* XPM */
static char *_104800de0db4e60d3457e3c895d818aZ50cTkgsfTGKU6Ap[] = {
/* columns rows colors chars-per-pixel */
"64 64 12 1 ",
"  c None",
". c #5E4741",
"X c #5E4842",
"o c #5F4842",
"O c #BF4343",
"+ c #BF4344",
"@ c #BF4444",
"# c #84AA45",
"$ c #84AA46",
"% c #85AA46",
"& c #85AB46",
"* c #85AB47",
/* pixels */
"                                                                ",
"                                                                ",
"                                                                ",
"                                                                ",
"                                                                ",
"                                                                ",
"                                                                ",
"                         X.X                                    ",
"                         ...X                                   ",
"                          ...X        #####                     ",
"                           X..      #######                     ",
"                            X..    ########                     ",
"                             X.X   #### ###                     ",
"                              ..  ###  ###                      ",
"                              X.  ########                      ",
"                               .X #######                       ",
"                               ..  #####                        ",
"                               X.                               ",
"                                .                               ",
"                    @OOOO@      X     @OOOO@                    ",
"                 @OOOOOOOOOO@      @OOOOOOOOOO@                 ",
"               @OOOOOOOOOOOOOOO@@OOOOOOOOOOOOOOO@               ",
"              OOOOOOOOOOOOOOOOOOOOOOOOOOOOOOOOOOOO              ",
"             @OOOOOOOOOOOOOOOOOOOOOOOOOOOOOOOOOOOO+             ",
"             OOOOOOOOOOOOOOOOOOOOOOOOOOOOOOOOOOOOOO@            ",
"            OOOOOOOOOOOOOOOOOOOOOOOOOOOOOOOOOOOOOOOO            ",
"            OOOOOOOOOOOOOOOOOOOOOOOOOOOOOOOOOOOOOOOO            ",
"           @OOOOOOOOOOOOOOOOOOOOOOOOOOOOOOOOOOOOOOOOO           ",
"           OOOOOOOOOOOOOOOOOOOOOOOOOOOOOOOOOOOOOOOOOO           ",
"           OOOOOOOOOOOOOOOOOOOOOOOOOOOOOOOOOOOOOOOOOO           ",
"           OOOOOOOOOOOOOOOOOOOOOOOOOOOOOOOOOOOOOOOOOO           ",
"           OOOOOOOOOOOOOOOOOOOOOOOOOOOOOOOOOOOOOOOOOO           ",
"           OOOOOOOOOOOOOOOOOOOOOOOOOOOOOOOOOOOOOOOOOO           ",
"           OOOOOOOOOOOOOOOOOOOOOOOOOOOOOOOOOOOOOOOOOO           ",
"           OOOOOOOOOOOOOOOOOOOOOOOOOOOOOOOOOOOOOOOOOO           ",
"           OOOOOOOOOOOOOOOOOOOOOOOOOOOOOOOOOOOOOOOOOO           ",
"           @OOOOOOOOOOOOOOOOOOOOOOOOOOOOOOOOOOOOOOOO+           ",
"            OOOOOOOOOOOOOOOOOOOOOOOOOOOOOOOOOOOOOOOO            ",
"            OOOOOOOOOOOOOOOOOOOOOOOOOOOOOOOOOOOOOOOO            ",
"            OOOOOOOOOOOOOOOOOOOOOOOOOOOOOOOOOOOOOOOO            ",
"             OOOOOOOOOOOOOOOOOOOOOOOOOOOOOOOOOOOOOO@            ",
"             OOOOOOOOOOOOOOOOOOOOOOOOOOOOOOOOOOOOOO             ",
"             @OOOOOOOOOOOOOOOOOOOOOOOOOOOOOOOOOOOO@             ",
"              OOOOOOOOOOOOOOOOOOOOOOOOOOOOOOOOOOOO              ",
"              @OOOOOOOOOOOOOOOOOOOOOOOOOOOOOOOOOOO              ",
"               OOOOOOOOOOOOOOOOOOOOOOOOOOOOOOOOOO               ",
"               @OOOOOOOOOOOOOOOOOOOOOOOOOOOOOOOO@               ",
"                OOOOOOOOOOOOOOOOOOOOOOOOOOOOOOOO                ",
"                @OOOOOOOOOOOOOOOOOOOOOOOOOOOOOO@                ",
"                 @OOOOOOOOOOOOOOOOOOOOOOOOOOOO@                 ",
"                  OOOOOOOOOOOOOOOOOOOOOOOOOOOO                  ",
"                   OOOOOOOOOOOOOOOOOOOOOOOOOO                   ",
"                   @OOOOOOOOOOOOOOOOOOOOOOOO@                   ",
"                    +OOOOOOOOOOOOOOOOOOOOOOO                    ",
"                     OOOOOOOOOOOOOOOOOOOOOO                     ",
"                      OOOOOOOOOOOOOOOOOOOO                      ",
"                       @OOOOOO@@@@OOOOOO@                       ",
"                         OO@        @OO                         ",
"                                                                ",
"                                                                ",
"                                                                ",
"                                                                ",
"                                                                ",
"                                                                "
};
