/* XPM */
static char *f3bc0f9a6f2c450bdc4a22fc7d34fdf8NQyresVnWiK3nU8z[] = {
/* columns rows colors chars-per-pixel */
"96 64 173 2 ",
"   c #030302",
".  c #080703",
"X  c #070904",
"o  c #090C07",
"O  c #080C07",
"+  c #0A0C07",
"@  c #090A05",
"#  c #030608",
"$  c #020609",
"%  c #050708",
"&  c #030608",
"*  c #030909",
"=  c #070808",
"-  c #060908",
";  c #070908",
":  c #050A08",
">  c #070A08",
",  c #070B08",
"<  c #060A09",
"1  c #06090B",
"2  c #070B0A",
"3  c #060A0B",
"4  c #070C08",
"5  c #070C09",
"6  c #060B09",
"7  c #090A08",
"8  c #080B08",
"9  c #090B08",
"0  c #080A09",
"q  c #090A09",
"w  c #080B09",
"e  c #090B09",
"r  c #080B0A",
"t  c #080C08",
"y  c #090C08",
"u  c #080D08",
"i  c #090D08",
"p  c #080C09",
"a  c #090C09",
"s  c #090D09",
"d  c #0A0C08",
"f  c #0B0C08",
"g  c #0A0D08",
"h  c #0B0D08",
"j  c #0A0C09",
"k  c #0A0D09",
"l  c #0B0D09",
"z  c #090E08",
"x  c #090E09",
"c  c #090F09",
"v  c #0A0E09",
"b  c #0B0E09",
"n  c #0A0F09",
"m  c #0B0F09",
"M  c #080C0A",
"N  c #090C0A",
"B  c #090D0A",
"V  c #080C0B",
"C  c #090C0B",
"Z  c #080D0B",
"A  c #090D0B",
"S  c #0A0C0A",
"D  c #0A0D0A",
"F  c #0B0D0A",
"G  c #0B0D0B",
"H  c #090F0A",
"J  c #090E0B",
"K  c #0A0E0A",
"L  c #0B0E0A",
"P  c #0B0F0A",
"I  c #0A0E0B",
"U  c #0B0E0B",
"Y  c #0B0F0B",
"T  c #0C0E09",
"R  c #0C0D0A",
"E  c #0C0E0A",
"W  c #0C0F0A",
"Q  c #0D0F0A",
"!  c #0C0E0B",
"~  c #0C0F0B",
"^  c #0D0F0B",
"/  c #080B0C",
"(  c #080C0C",
")  c #090D0D",
"_  c #0A0D0C",
"`  c #0A0D0D",
"'  c #090E0D",
"]  c #0A0E0C",
"[  c #0B0E0C",
"{  c #0B0F0C",
"}  c #0A0E0D",
"|  c #0B0E0D",
" . c #0B0F0D",
".. c #080E0E",
"X. c #0C0E0C",
"o. c #0D0E0C",
"O. c #0C0F0C",
"+. c #0D0F0C",
"@. c #0C0F0D",
"#. c #0D0F0D",
"$. c #0D0F0E",
"%. c #0F0F0E",
"&. c #0C0D0A",
"*. c #100F07",
"=. c #091009",
"-. c #0B100A",
";. c #0B100B",
":. c #0B110B",
">. c #0D100A",
",. c #0C100B",
"<. c #0A100D",
"1. c #0B100D",
"2. c #0B100F",
"3. c #0B120E",
"4. c #0C100C",
"5. c #0D100C",
"6. c #0C100D",
"7. c #0D100D",
"8. c #0C110D",
"9. c #0D110D",
"0. c #0E100C",
"q. c #0E100D",
"w. c #0F100D",
"e. c #0E110D",
"r. c #0F110D",
"t. c #0E120D",
"y. c #0C100E",
"u. c #0D100E",
"i. c #0D110E",
"p. c #0C100F",
"a. c #0D110F",
"s. c #0F110E",
"d. c #0E110F",
"f. c #0C120E",
"g. c #0D120F",
"h. c #0E130E",
"j. c #0F130E",
"k. c #0E120F",
"l. c #0E110C",
"z. c #111007",
"x. c #10120E",
"c. c #10130F",
"v. c #11140E",
"b. c #10140F",
"n. c #12140F",
"m. c #11120D",
"M. c #18160C",
"N. c #0C1110",
"B. c #0D1110",
"V. c #0C1210",
"C. c #0F1210",
"Z. c #0F1310",
"A. c #0C1212",
"S. c #0C1312",
"D. c #0F1212",
"F. c #0E1413",
"G. c #0E1312",
"H. c #0E1418",
"J. c #101311",
"K. c #101313",
"L. c #111411",
"P. c #131715",
"I. c #121412",
"U. c #181711",
"Y. c #161814",
"T. c #191B14",
"R. c #111718",
"E. c #141918",
"W. c #141A1A",
"Q. c #191C1A",
"!. c #1F2118",
"~. c #1C2426",
"^. c #1F272E",
/* pixels */
"                                                                              /                     *                         *         X   * X     7       =   X = X X   X X ` X   X X     *   ",
"                                                                                                                              X       X X X X X X   X   = X X X `   X X X X X = ` X X   X X     ",
"                                                                                                                              X     X X X X X X   X X = j X = j j j j = = = X = X X X X X X X   ",
"                                                &                                                                       *   *   *   X   X X X X X 7 X X X = d.j j 7 = X = X X = X X X j j       ",
"                                                                                                                      X         X X X   = X j j X d.X X = X X j j = = n.-.X X 7 X X * = X X X X ",
"                                                                                                                          = =     =       X * = X = X X ` = + j d.j j 7 S.j X j j 7 7 X X O O j ",
"                                                                                                                          X =     = X X   X X = X X 7 7 j j + j j T j ` 5 j j j j j = = X O O j ",
"                                                                                                                    *     =         = X X = X X X = X d.= = j 3.j j j ` ` * ` j j j = j 3.X j * ",
"                                                                                                      X X           X *             X + X = X X X + X j j + j j j j d.` ` j d.%.d.T j j R.7 X X ",
"                                                                                            = X X               X   X 7 =   =   X   j X X = X X = j 7 + j j * ` T j -.-.j j d.d.T %.d.S.d.j j = ",
"                                                                        X           *           *             = X     X   X X = = X X 7 j ` d.= = j j j 7 j ` %.T j j S.d.%.%.7 d.d.-.j j 3.j X ",
"                                                                          &                       X X   X =   7 X = = X       X X   = X 7 = j j = j + j j S.%.j T j T G.T j T 7 j j j j j 5 = X ",
"                                                                                                                  X       7 X = = + X X = = = T >.d.+ T T j S.j %.T %.%.%.T j %.d.j j = 5 + = = ",
"                                                                                                *                   =     X X = + + X X = = + T %.j j d.j %.J.d.x.I.d.T T d.d.j j d.d.j T S.j ` ",
"                                      =                                                                                 X = = = + j X + = = j j j j j %.T %.E.d.n.d.d.S.T d.j j j j T T S.J.T 3.",
"                                                                                                              X = X   X X 7 X + T = j = 7 = T T d.d.` j T j T d.d.n.T %.T -.j + j j >.T j %.= = ",
"      %                       %.                                                                              = 7 = = = = = = d.S.= j + j d.j ` T %.K.x.T d.T %.d.>.T S.d.+ j j j j j j >.%.T j ",
"                      =                             X                   T                                   X 7   = = 7 Q.= j j = j j T T j j d.T T %.d.T T j d.x.x.j T H.T T T >.+ + j d.j j + ",
"                                    X                                   =                           =     =   =   = = j = = = = j j j T d.%.S.T >.T T d.T = T >.T S.K.G.S.j j >.-.j j j + + T = ",
"                                          7                                   *                               X = = = = j = 7 = = = j T j d.J.d.%.H.j j H.T T d.J.j d.S.d.T T >.-.j + j + S.7 ` ",
"                                                                                        =       `       X = X   = =   7 7 7 7 7 7 %.T j d.d.x.K.T %.x.%.%.G.d.d.K.d.T T >.T d.n.G.>.+ j + j + = ",
"              &                                                                                 X X   = 7 X = = = = = = = = d.T j T %.%.d.d.T T T T d.d.d.T T d.T T T T d.I.d.T d.S.j T T + = = ",
"                                                                                                  X = = = 7 = = = 7 = = 7 j T + T j d.T T d.T G.d.I.J.d.S.d.S.d.%.T T %.T d.%.3.` j = X = = j = ",
"                                                                        X                   = = X = X 7 X = = 7 = = T j T d.>.T %.d.T T T d.d.I.K.d.T d.d.T T T d.T J.T T j 7 j T j = j + = X = ",
"                                  =                                               =   T X             =   = = 7 T j j j d.>.R.%.%.T T x.x.x.d.%.P.%.j T T d.d.+ T T T j j j = T j j j T X X = X ",
"                                                                              X           = = X X = = = = = T = = d.T d.T x.d.J.J.d.J.J.T T T + = j S.d.d.T j + j j j + = T T j + + >.T + 7 =   ",
"                *                                             X               X   = =   X = = = = = = = T 7 T 7 T T T %.J.J.J.J.d.I.x.J.d.d.j j T j 7 T + + + + = j !.>.j + + + + H.d.7 = = =   ",
"                                X                             X       X           X   X = = = = 7 = 7 7 T 7 %.%.%.T J.x.J.P.K.J.d.J.d.%.T j j j T j X j + + + = = + m.+ j = + + d.R.j + = X = = ",
"                                                          X                       X   X = = 7 = = = T T T T %.x.%.d.>.%.x.I.K.d.d.T T T T j >.>.7 7 j = j X + = X = = j j = + j + + + = = X X X ",
"                                                                                  X = = = X 7 7 + j d.T T T T x.d.x.%.J.%.x.x.d.d.T T T 7 7 d.T = j 7 = j = 7 X X = + + + = = = + = = = = X X X ",
"                                  X                   X     X X               X X X = = = = = 7 j T %.x.%.x.%.x.T %.J.%.J.%.%.x.%.T T j j T j T + j = = + j 7 X = + = + = = j + j j + = = X X X ",
"            X                     7                         X       = X X = X = = = j = j j ` %.T T x.x.K.E.J.x.T T d.d.d.d.T >.T T d.T %.%.T T + + = = = j = h + + = + j j + j + d.d.= X X X   ",
"                          X           X             X     X X X X   + X X   X = = 7 + + j %.d.%.d.>.d.x.d.d.J.x.%.T J.J.%.T T T j + j + j T 7 j + = + = + + = X j = j = + -.j + X j = = X X X X ",
"                      X             X                 X X   X X = = X = = = X + j j T j j T T T d.d.%.>.T T J.x.%.T %.T %.+ j T T T j j + + j j = = + = = = = X = + + = + T ` 3.j = X X + X X X ",
"  X                                   X       X X X X X X     X = = X = j = = j T j T T x.>.x.d.x.%.x.x.x.x.d.%.x.d.T T T + j + = = = + j T T + = = + = = X + @ j j + + j ` ` j >.X X = + X X X ",
"  X                       X             X X X X X X X X X X X X X = = = j + >.j T T %.%.x.n.I.x.x.J.x.x.J.J.>.>.d.d.T T >.+ j + + + = + j + j = + = + j = = X E.I.Q.I.I.j T j = + = + X X X X X ",
"                X X   X X X X   X   X X X X X X X X X X = = = X X = = = + h >.T T T w.x.x.n.Y.E.I.I.I.J.I.d.T x.>.T %.T d.T j T >.+ + + + = = = = @ = @ = = = K.T I.G.x.j 3.+ X = + + X = X X X ",
"                      X   X X X X X X X @ X X X = X = X = = + X = = = + T T T %.x.x.x.x.I.n.Q.Q.I.n.I.J.x.m.x.>.>.T %.~.J.j + + j = + = = @ X = + @ @ = = = = + >.= = j T ` j = = + X X X X X * ",
"                  X X         X X X X X X X X = = = + T + = X = X X + j 3.>.x.x.x.I.x.x.n.n.n.I.I.x.>.>.I.x.m.m.I.d.j K.d.T + T + + = = = = = j = = = @ = @ T W.+ h + d.= + = + = = X = = X X   ",
"                          @ X X X X = X X X X = @ X = = + + + = = = = T T >.>.n.x.x.x.n.x.>.n.n.I.>.x.R.J.x.m.x.T T h + >.= = + h + + X X X = @ @ = @ @ = j ^.J.@ + X = = = = + = X X X = X T X ",
"                      X X X     X X = X X X @ @ = = + + = m.+ = = + + h x.>.m.n.x.>.n.m.T m.I.x.x.x.n.I.d.x.E.x.T T d.= x.= T = + = + = = = @ @ X I.@ X @ = d.= + = X X X @ = + @ X X X X   X = ",
"            X j =   =   X X X = + 3.= X X = X + = + j.+ h h + + + + >.>.T T >.n.m.x.>.h h m.x.m.Y.I.I.E.Q.>.d.n.T T + j = + >.>.h = = + = = @ @ @ X = @ @ @ = = = = + = = = X + X X X X X X X   ",
"X       X X X X X   X X = X X + = T = + + X = + @ @ + + + = + + h >.h h h *.Y.Q.T >.T T h m.m.n.m.>.>.x.T m.h + + T T + = h = + = = + = @ h @ @ = @ @ X @ @ = + h @ ` X @ X + = = X X = X X X = ",
"    X       X =         = + X X X = = = @ + = = + = + h + + h h T + T + T >.m.n.>.+ d.T T T T I.n.n.T h U.T h = + = + + @ @ + = @ = @ @ = = T + X @ = X X X = = = = = = = + %.X = X X X X X X X ",
"X     X     X X X X X X = + @ X X = @ = @ = + @ = + = + h = h h T = T h = T + h T + m.>.>.>.>.h T h h + Y.h h @ + = @ = = h = = @ @ @ @ @ @ = = X X X X @ @ = X @ T Q.@ @ X = + X X X X X   X X ",
"      X X X   X X X   X X X X @ @ @ @ @ h T + + h = = m.n.m.h T n.+ T T T m.m.m.m.>.U.T m.m.h h h h = h h h h @ = = + h h @ = h @ @ = @ @ @ @ = @ X @ @ @ @ X X @ X + j @ X j X X + X   X   5   ",
"                  X @ @ + @ X @ @ + + = m.@ = @ @ = h T h @ = h h d.+ >.+ h h I.T m.I.P.h h h h = h h h h T @ @ @ = @ @ @ @ = = @ = = = @ = = @ @ @ X @ = j = @ @ @ X X X @ X X X = = X     X   ",
"        X X     X X X T X X X h @ h = = @ = @ @ X = @ = @ @ h m.m.*.m.h h m.>.m.x.m.h h h h I.m.@ h j + T h @ @ = = @ = = @ = @ @ @ @ @ = @ @ + d.@ @ X @ = X + j X X X X X X   X   X X         ",
"        X       @ = X = X X X = @ @ @ = @ = @ @ @ @ @ + h = n.U.m.h *.h *.m.T z.h z.h h h h z.h @ @ h h @ = h @ @ h @ @ h @ = @ @ = = + @ @ @ = + @ @ X @ @ @ X =   X X + @ @ X X X X X X       ",
"    X           + + @ @ X = X @ @ @ @ @ = @ m.@ @ X @ @ @ m.z.M.z.h + h z.h m.*.@ h h h @ @ @ h @ @ @ @ @ @ h h @ h h @ @ @ @ @ @ @ = = X X @ @ X X @ X @ + @ X @ X @ X X @ @ @ @ X X     X     ",
"                    X X X @ @ + @ @ @ @ @ h @ @ @ @ @ @ @ @ *.m.m.@ h m.h z.@ @ h @ h @ @ h h @ @ @ @ @ @ @ @ h @ @ @ @ @ @ X @ @ X @ X X X h h X   = X @ = @ X @   @ X X X X   X X X           ",
"                    X X   @ @ h = @ @ @ @ @ = @ h @ @ @ @ @ @ @ h h @ U.h *.h @ h @ *.@ @ @ h @ @ h h @ h @ @ h @ @ @ @ @ @ X X @ X X X X X X @ X   X X X @ X X X X X     X                   X ",
"                      X   @ @ @ @ @ @ @ X @ @ @ @ @ @ @ @ @ @ @ @ @ h m.h h m.@ @ @ @ @ @ @ @ @ @ @ @ @ @ @ @ @ @ @ @ @ X @ @   @ X X X     X = @   X X X @     X       X                       ",
"                                @ X X @ @ @ @ X @ @ @ @ @ @ @ @ @ @ @ @ h @ @ @ @ @ @ @ @ = @ @ @ @ @ @ @ @ @ @ @ @ @ @ @ @ X   @ @   X X           X X X X     @                               ",
"                        X         @   @         @ @ X X = =   @ . . . @ @ @ @ @ @ @ @ @ @ @ @ @ @ @ @ @ . . @ @ @ @ @ @ @ @ X   @ X X     @               @         X                           ",
"                                            h         X @ @ @     .   . . . .   @ @ @   @ @ X X = @ . @ @ .   @ X . @ @ X X     X   X               =                                           ",
"                                                      X                                     X X = @ @ @         .   @ . X @                                                                     ",
"                                                                                              X                   X       =                                                                     ",
"                                                                                                                .                                                                               ",
"                                                                                                                                                                                                ",
"                                                                                                                                                                                                ",
"                                                                                                                                                                                                ",
"                                                                                                                                                                                                ",
"                                                                                                                                                                                                "
};
