/* XPM */
static char *_9ceb62903934a85b723b33adceeb2f53MJUefoBvBMNk5Nc[] = {
/* columns rows colors chars-per-pixel */
"64 64 210 2 ",
"   c black",
".  c LightGray",
"X  c #D7D7D7",
"o  c #C7C6C6",
"O  c #D1D0D1",
"+  c #B8B6B7",
"@  c #CBCACB",
"#  c #B6B3B4",
"$  c #C9C8C9",
"%  c #373737",
"&  c #2C2C2C",
"*  c gray15",
"=  c #2A2A2A",
"-  c #2A2A2A",
";  c gray58",
":  c gray36",
">  c #2D2D2D",
",  c gray62",
"<  c #B1B1B1",
"1  c #313131",
"2  c gray30",
"3  c gray14",
"4  c gray14",
"5  c #2A2A2A",
"6  c #AAAAAA",
"7  c #848484",
"8  c #2C2C2C",
"9  c gray28",
"0  c #989898",
"q  c gray68",
"w  c #A7A7A7",
"e  c gray66",
"r  c #222222",
"t  c gray13",
"y  c gray50",
"u  c gray51",
"i  c #2C2C2C",
"p  c gray60",
"a  c #393939",
"s  c #1D1D1D",
"d  c gray11",
"f  c #2D2D2D",
"g  c #959595",
"h  c #6A6A6A",
"j  c #2F2F2F",
"k  c #2C2C2C",
"l  c gray18",
"z  c gray59",
"x  c gray18",
"c  c #676767",
"v  c #2C2C2C",
"b  c #2F2F2F",
"n  c #2F2F2F",
"m  c #3E3E3E",
"M  c gray30",
"N  c gray29",
"B  c #353535",
"V  c #323232",
"C  c #434343",
"Z  c gray24",
"A  c #414141",
"S  c gray25",
"D  c #373737",
"F  c gray22",
"G  c gray15",
"H  c #494949",
"J  c #4C4C4C",
"K  c #343434",
"L  c gray19",
"P  c #979797",
"I  c #676767",
"U  c gray17",
"Y  c #B4B4B3",
"T  c #A9A9A9",
"R  c #8D8D8D",
"E  c #606060",
"W  c #D7D7D7",
"Q  c gray49",
"!  c gray78",
"~  c gray73",
"^  c #6C6C6C",
"/  c gray77",
"(  c #A0A0A0",
")  c #C8C8C8",
"_  c #252525",
"`  c #CDCDCD",
"'  c gray43",
"]  c #CBCBCB",
"[  c gray70",
"{  c gray33",
"}  c #A4A4A4",
"|  c gray72",
" . c gray57",
".. c #898989",
"X. c #BCBCBC",
"o. c #464646",
"O. c #656565",
"+. c #2F2F2F",
"@. c #9D9D9D",
"#. c #747474",
"$. c #565656",
"%. c #E1E1E1",
"&. c #838383",
"*. c gray45",
"=. c #CACACA",
"-. c #656565",
";. c #B7B7B7",
":. c #676767",
">. c gray39",
",. c #5B5B5B",
"<. c #717171",
"1. c #DFDFDF",
"2. c #939393",
"3. c gray74",
"4. c #767675",
"5. c #EFEFEF",
"6. c #555555",
"7. c #8E8E8D",
"8. c #B4B4B4",
"9. c #818181",
"0. c #313131",
"q. c #4B4B4B",
"w. c #343434",
"e. c gray34",
"r. c gray32",
"t. c #BBBBBB",
"y. c #848483",
"u. c gray90",
"i. c #272727",
"p. c #B2B2B2",
"a. c #D4D4D3",
"s. c gray76",
"d. c gray63",
"f. c #727272",
"g. c #A2A2A2",
"h. c #E7E7E7",
"j. c #ECECEC",
"k. c gray21",
"l. c None",
"z. c gray26",
"x. c #323232",
"c. c #B9B9B8",
"v. c gray37",
"b. c #B9B9B9",
"n. c #DADADA",
"m. c #D5D5D5",
"M. c #E4E4E4",
"N. c #C1C1C1",
"B. c #505050",
"V. c #E6E6E6",
"C. c #585858",
"Z. c gray",
"A. c gray71",
"S. c #515151",
"D. c gray18",
"F. c gray36",
"G. c #4B4B4B",
"H. c #3A3A3A",
"J. c #3F3F3F",
"K. c gray28",
"L. c #545453",
"P. c #1E1E1E",
"I. c #5D5D5D",
"U. c gray12",
"Y. c gray65",
"T. c gray32",
"R. c #232323",
"E. c #A5A5A5",
"W. c gray33",
"Q. c gray18",
"!. c #565656",
"~. c #353535",
"^. c gray33",
"/. c gray17",
"(. c #555555",
"). c #282828",
"_. c #797979",
"`. c gray79",
"'. c gray15",
"]. c gray31",
"[. c #282828",
"{. c #2C2C2C",
"}. c #585858",
"|. c gray18",
" X c gray24",
".X c #353535",
"XX c #2D2D2D",
"oX c gray52",
"OX c #585858",
"+X c #2C2C2C",
"@X c gray17",
"#X c #2A2A2A",
"$X c gray30",
"%X c #2F2F2F",
"&X c #B6B4B5",
"*X c #CAC8C9",
"=X c LightGray",
"-X c #C2C0C1",
";X c #B7B5B6",
":X c #B6B4B5",
">X c #B6B5B5",
",X c #BCBABB",
"<X c #CECDCE",
"1X c #D7D7D7",
"2X c #CFCECF",
"3X c #CAC9CA",
"4X c #C9C8C8",
"5X c #C9C8C9",
"6X c #CDCCCD",
"7X c gray84",
/* pixels */
"                                                                                                                                ",
"                                                                                                                                ",
"                                                                                                                                ",
"                                                                                                                                ",
"                                                                                                                                ",
"                                                                                                                                ",
"                                                                                                                                ",
"                                                                                                                                ",
"                                                                                                                                ",
"                                                                                                                                ",
"                                                                                                                                ",
"                                                                                                                                ",
"                                                                                                                        . X     ",
"                                                                                                                        o O     ",
"                                                                                                                        + @     ",
"                                                                                                                        # $     ",
"                                                                                                                        # $     ",
"                                                                                                                        # $     ",
"                                                                                                                        # $     ",
"                                                                                      % &                               # $     ",
"                                                                                      & * =                             # $     ",
"                                                                                      - ; : >                           # $     ",
"                                                                                      - , < : 1                         # $     ",
"              2 3 3 3 3 3 3 3 3 3 3 3 3 3 3 3 3 3 3 3 3 3 3 3 3 3 3 3 3 3 3 3 3 3 3 3 4 , 5 6 7 8                       # $     ",
"              9 0 q w w w w w w w w w w w w w w w w w w w w w w w w w w w w w w w w w w e r t y u i                     # $     ",
"              9 p a 5 5 5 5 5 5 5 5 5 5 5 5 5 5 5 5 5 5 5 5 5 5 5 5 5 5 5 5 5 5 5 5 5 5 5 s d f g h j                   # $     ",
"              9 p k d d d d d d d d d d d d d d d d d d d d d d d d d d d d d d d d d d d d d d l z h x                 # $     ",
"              9 p k d d d d d d d d d d d d d d d d d d d d d d d d d d d d d d d d d d d d d d d l z c v               # $     ",
"              9 p k d d d d d d d d d d d d d d d d d d d d d d d d d d d d d d d d d d d d d d d d b z c n             # $     ",
"              9 p k d d m M N b m s B V C M M Z A M S d d D S d l F d m G r H J r K M M f d d d d d d L P I U           # $     ",
"              9 p k d d Y T R E W N R y Q ! ~ ^ / ( ) M _ < ` l ' ] V [ { } | <  ...X.; o.d d d d d d d L 0 O.+.        # $     ",
"              9 p k d d | @.#.$.%.q ( &.d  .*.d =.-.;.:.>.X.;.,.<.1.2.3.4.5.k _ 6.7.8.9.0.d d d d d d d d 0.e q.w.      # $     ",
"              9 p k d d ;.&.e.r.t.y.u.&.d  .*.d =.e %.i.p.a.s.d.f., g.h.*.j.k.k -.7.( E 5 d d d d d d d d r.l.z.x.      # $     ",
"              9 p k d d c., Q v.b.K n.&.d  .*.d =.Z m.A M.R Q N.Q g B.V.C.Z.p.w w 7.A.&.A d d d d d d d 0.w S.D.        # $     ",
"              9 p k d d J E F.D G.d m H.d J.k.d B._ m K.L.i.t M S S d H 5 P.C.I.U.m E E K d d d d d d 0.Y.T.R.          # $     ",
"              9 p k d d d d d d d d d d d d d d d d d d d d d d d d d d d d d d d d d d d d d d d d L E.W.Q.            # $     ",
"              9 p k d d d d d d d d d d d d d d d d d d d d d d d d d d d d d d d d d d d d d d d L Y.!.~.              # $     ",
"              9 p k d d d d d d d d d d d d d d d d d d d d d d d d d d d d d d d d d d d d d d b Y.^./.                # $     ",
"              9 p k d d d d d d d d d d d d d d d d d d d d d d d d d d d d d d d d d d d d d b E.(.).                  # $     ",
"              9 _.T w w w w w w w w w w w w w w w w w w w w w w w w w w w w w w w w w w `.r S } (.'.                    # $     ",
"              ].[.[.[.[.[.[.[.[.[.[.[.[.[.[.[.[.[.[.[.[.[.[.[.[.[.[.[.[.[.[.[.[.[.[.[.{.g.o.[ }.|.                      # $     ",
"                                                                                       Xg.A..XXX                        # $     ",
"                                                                                       XoXOX+X                          # $     ",
"                                                                                       X@X#X                            # $     ",
"                                                                                      $X%X                              # $     ",
"                                                                                                                        # $     ",
"                                                                                                                        # $     ",
"                                                                                                                        # $     ",
"                                                                                                                        # $     ",
"                                                                                                                        # $     ",
"                                                                                                                        # $     ",
"                                                                                                                        &X*X    ",
"        =X-X;X:X>X>X>X>X>X>X>X>X>X>X>X>X>X>X>X>X>X>X>X>X>X>X>X>X>X>X>X>X>X>X>X>X>X>X>X>X>X>X>X>X>X>X>X>X>X>X>X>X>X>X>X:X,X<X    ",
"        1X2X3X4X4X4X4X4X4X4X4X4X4X4X4X4X4X4X4X4X4X4X4X4X4X4X4X4X4X4X4X4X4X4X4X4X4X4X4X4X4X4X4X4X4X4X4X4X4X4X4X4X4X4X4X5X6X7X    ",
"                                                                                                                                ",
"                                                                                                                                ",
"                                                                                                                                ",
"                                                                                                                                ",
"                                                                                                                                ",
"                                                                                                                                ",
"                                                                                                                                ",
"                                                                                                                                ",
"                                                                                                                                ",
"                                                                                                                                "
};
