/* XPM */
static char *a9ecd2fdc94c46e7e8adf989bb80d945GlMWsCrbwNEc7ywh[] = {
/* columns rows colors chars-per-pixel */
"64 64 231 2 ",
"   c None",
".  c #0C130B",
"X  c #141C14",
"o  c #161C1C",
"O  c #171B16",
"+  c #0E150E",
"@  c #16240C",
"#  c #192B09",
"$  c #1D3408",
"%  c #1A2412",
"&  c #1B231C",
"*  c #192616",
"=  c #23340D",
"-  c #243C09",
";  c #222315",
":  c #262C19",
">  c #2D3B14",
",  c #293619",
"<  c #32391D",
"1  c #151F20",
"2  c #1D2523",
"3  c #1E2B23",
"4  c #1B2725",
"5  c #1E3C21",
"6  c #222B25",
"7  c #232D2A",
"8  c #212621",
"9  c #243324",
"0  c #2A3624",
"q  c #263A25",
"w  c #2A3C25",
"e  c #25322B",
"r  c #2A352D",
"t  c #2A3B2B",
"y  c #263A2C",
"u  c #363923",
"i  c #2C3C32",
"p  c #293631",
"a  c #323D35",
"s  c #29451A",
"d  c #35441C",
"f  c #38491A",
"g  c #3D5B1C",
"h  c #395719",
"j  c #32500A",
"k  c #2B4324",
"l  c #2B4625",
"z  c #334325",
"x  c #3B4523",
"c  c #334C24",
"v  c #324B2A",
"b  c #384929",
"n  c #3B5322",
"m  c #3C5B25",
"M  c #3B542C",
"N  c #3C5A2A",
"B  c #365326",
"V  c #2D4434",
"C  c #324535",
"Z  c #364C3C",
"A  c #374937",
"S  c #3B5434",
"D  c #3D5B33",
"F  c #3B543B",
"G  c #3D583C",
"H  c #2C5629",
"J  c #356D29",
"K  c #43591A",
"L  c #45670D",
"P  c #54750D",
"I  c #466917",
"U  c #4D7318",
"Y  c #557A19",
"T  c #4C7F0E",
"R  c #647F1A",
"E  c #444A27",
"W  c #425923",
"Q  c #465728",
"!  c #415C32",
"~  c #485735",
"^  c #426325",
"/  c #4A6523",
"(  c #4B6C23",
")  c #43622B",
"_  c #4C642B",
"`  c #466A2D",
"'  c #496B28",
"]  c #536927",
"[  c #4C7526",
"{  c #587827",
"}  c #43643C",
"|  c #486735",
" . c #526C35",
".. c #5A7533",
"X. c #587638",
"o. c #4B7035",
"O. c #607E29",
"+. c #67712C",
"@. c #617F38",
"#. c #646E2C",
"$. c #344E49",
"%. c #3C5443",
"&. c #3A564A",
"*. c #375451",
"=. c #395654",
"-. c #3C5A56",
";. c #3D5D5A",
":. c #3E625D",
">. c #415D45",
",. c #425C4D",
"<. c #405745",
"1. c #425D53",
"2. c #44624B",
"3. c #476545",
"4. c #556947",
"5. c #587644",
"6. c #446354",
"7. c #43645C",
"8. c #49695D",
"9. c #516D56",
"0. c #557453",
"q. c #456A64",
"w. c #4B6D64",
"e. c #466763",
"r. c #4A7269",
"t. c #4D7166",
"y. c #537364",
"u. c #56776C",
"i. c #597B76",
"p. c #50706B",
"a. c #5B8416",
"s. c #5B831A",
"d. c #57851C",
"f. c #5D920E",
"g. c #77990F",
"h. c #698B1A",
"j. c #66881A",
"k. c #6B9519",
"l. c #739316",
"z. c #7B9D16",
"x. c #77991A",
"c. c #64890D",
"v. c #7DA215",
"b. c #538E33",
"n. c #668528",
"m. c #739726",
"M. c #668636",
"N. c #728D21",
"B. c #7DA226",
"V. c #568F4E",
"C. c #6F925A",
"Z. c #5E8277",
"A. c #63847B",
"S. c #678878",
"D. c #70926B",
"F. c #62AF4E",
"G. c #72C551",
"H. c #81A51B",
"J. c #84A514",
"K. c #95AA1D",
"L. c #98B711",
"P. c #8EB00E",
"I. c #A6BD14",
"U. c #87AA25",
"Y. c #97B226",
"T. c #92AF26",
"R. c #A7BB23",
"E. c #9CC115",
"W. c #ABC70D",
"Q. c #BBD40C",
"!. c #AAC815",
"~. c #B5DD13",
"^. c #B4D918",
"/. c #B2CE11",
"(. c #BCE315",
"). c #BCE517",
"_. c #B8CB28",
"`. c #BED32C",
"'. c #B0C52D",
"]. c #9DC32A",
"[. c #C5D90D",
"{. c #D3DF11",
"}. c #CDDB12",
"|. c #C4ED16",
" X c #C4EC1A",
".X c #C9ED1A",
"XX c #C5EB19",
"oX c #C7F116",
"OX c #CAF317",
"+X c #CCF319",
"@X c #C7F018",
"#X c #D1ED18",
"$X c #C8D62B",
"%X c #CFD834",
"&X c #CBD64F",
"*X c #DAE84B",
"=X c #CCE04C",
"-X c #DCE46E",
";X c #E3EA6D",
":X c #E0E56E",
">X c #E8ED73",
",X c #D4DD69",
"<X c #5A7F82",
"1X c #5F8387",
"2X c #68898F",
"3X c #688A87",
"4X c #6D9289",
"5X c #75978C",
"6X c #789C92",
"7X c #7BA397",
"8X c #85A59A",
"9X c #8FB19D",
"0X c #85ABA1",
"qX c #8AB3A9",
"wX c #95B6A9",
"eX c #96B9B2",
"rX c #99C1B9",
"tX c #A7C2B4",
"yX c #EFF18E",
"uX c #F3F38B",
"iX c #EBEC88",
"pX c #EDF1B3",
"aX c #A7C9C5",
"sX c #BBD7D4",
"dX c #B4D1CC",
"fX c #C4DEDC",
"gX c #F1F5CE",
"hX c #D2E3E3",
"jX c #FBFDEA",
"kX c #FAFCE7",
"lX c #FBFEFA",
/* pixels */
"                                                                                                                                ",
"                                                                                                                                ",
"                                                                                                                                ",
"                                                                                                                                ",
"                                                                                                                                ",
"                                                                                                                                ",
"                                    u.i.A.3X3XA.y.S.7X8X9XwXwXtXtXtXaXdXsXsXeX8X8XfXfXhXhXhX                                    ",
"                                  *.:.q.q.r.r.t.t.&.2.0.V.V.C.C.C.D.D.D.D.S.S.4X3XrXaXdXsXfXsX                                  ",
"                                7.7.=.e.q.r.r.w.8.e s g d.T k.k.f.k.k.d.d.m v A.A.eXaXaXaXdXwXdX                                ",
"                              -.*.:.e.:.q.w.r.w.w.q s Y *X'.*X*X`.*X`.=XU.[ l A.i.qXeXeXrX8XrXeXtX                              ",
"                            i.=.;.;.*.7.e.w.t.w.8.9 s U '.J.`.`.L._._._.Y.I k u.u.7X0X0XqX4XwXwXeX6X                            ",
"                            2X=.;.*.=.7.e.w.w.8.,.C , h I U Y a.a.s.Y [ [ B l y.t.6X7X7X8X0XA.qXwX6X                            ",
"                            2X=.7.$.;.7.8.8.w.&.$.V v M m ^ ( [ { [ [ ` | ! G 1.&.A.5X5X7X7X6XA.0X5X                            ",
"                            2X=.e.$.-.;.7.7.&.y . . + @ # # = - - - - = # @ + . 3 1.A.4X6X6X6Xu.7X4X                            ",
"                            2X=.e.$.-.1.7.&.V X & X X % % % = = = = = = % % X X . 6 1.A.4X4X4Xp.6XS.                            ",
"                            2X=.8.p V V Z &.Z i & O ; : : , > > > > > , : : ; & X 2 V &.,.1.1.w.4XA.                            ",
"                            2X=.7.y A ~ ~ &.,.%.u * 9 q q w k c c k k w q 3 X ; 3 e &.~ 4.4.,.8.3XA.                            ",
"                            2X*.7.< x ~ E 1.,.<.E y Z %.F B N ) ) D D F %.Z 9 % V i y.u X.~ A 7.A.i.                            ",
"                            1X*.7.X J V.l ,.,.<.~ C %.>.| h.U.U.T.U.U.o.2.<.C , Z i 8.5 F.V.y 6.Z.u.                            ",
"                            <X*.7.* b.G.H ,.,.%.~ Z >.} B.^.XX.X.X X X].o.>.Z u Z i 6.l G.F.w 6.i.y.                            ",
"                            i.*.6.* J b.H 2.,.%.~ F 3.` ^.)..X+X+X@X.X Xn.G F z Z i 6.k b.b.k 6.u.y.                            ",
"                            p.$.6.* s s s 2.2.G ~ F 3.[ ^..X+X+X+X+X@X Xm.} F z Z t 6.s m m c 2.y.9.                            ",
"                            r.$.2.s I R K 3.3.G ~ F 3.[ (.@X+X+X+X+X+X.XB.} G z Z l 0.g N.N.g 3.0.9.                            ",
"                            q.$.3.I K.%Xl.X.3.G ! S } { (.@X+X+X+X+X+X@XB.} G z S z 5.j.&X'.Y  .0.9.                            ",
"                            e.F  .R &XgXR.M. .! _ D | d.(.oX+X+X+X+X+XoXH.| G x S c M.K.gX>Xx.X.5.4.                            ",
"                            7.S  .l.-XlX'.M.X.! _ N ` s.(.oXoX+X+X+X+X.XH.| D x M n M.I.jXyXP.M.5.5.                            ",
"                            6.S ..J.:XlX_.m.X.! _ m ` s.(.oX+X+X+X+X@X.XH.` ! x N g m./.jXyXL.n.@.5.                            ",
"                            6.M { P.;XlX$XB...) / m ` s.(.oX+X+X+X+X@X@XH.` ! x W g x.}.jXuXW.m.@.X.                            ",
"                            2.N { L.;XlX$XU...^ ] m ' a.(.oX+X+X+X+X+X@XH.` ! d W K v.}.jXuX/.x.n.X.                            ",
"                            2.N n.!.;XlX$XU.{ / ] g ( a.(.oX+X+X+X+X+X@XH.` N d W K J.{.jXuXQ.z.n.X.                            ",
"                            >.m j.!.>XlX$XT.O./ ] g ( Y XXoX+X+X+X+X+X.Xv.) N d W K J.{.kXuX[.J.n...                            ",
"                            >.m h.!.>XlX$XT.O./ { g ( Y (.oX+X+X+X+X+X@Xv.^ N d W K v.{.kXuX[.J.n...                            ",
"                            G m j.!.>XlX$XT.O./ ] g / Y (.oXoX+X+X+X+X|.v.^ N d g h v.{.kXuXQ.z.O...                            ",
"                            F m j.!.>XlX$XU.{ I K _ M.U (.oXoX+X+X+X+X|.v.^ N d n h g.}.kXuXQ.x.O...                            ",
"                            S n s.L.;XlX$XU.{ W K Q M.U (.oXoX+X+X+X+X|.v.^ N d n f l.[.kXuX/.l.{  .                            ",
"                            A n Y L.;XlX$Xx.{ W f d X.U (.oXOX+X+X@X+X|.z.^ N d f f k.Q.kXuXW.h.{  .                            ",
"                            C c Y J.;XlX_.k.] W K # h I ~.oXoXOXoX@X@X|.x.m M < f f j./.kXuXL.j.{ _                             ",
"                            V c [ g.;XlX_.h./ W Q @ s I ~.oXOX+XOX@X@X|.l.m c < d f a.W.kXuXP.s.] _                             ",
"                            t c ( l.-XlX_.j./ n d > _ I ~.oXoXOXOX+X@X|.l.n v < d s Y I.kXiXJ.{ ' !                             ",
"                            t k / c.-XlXR.Y W x d > n I ~.oXoXoX@X@X@X|.l.B z < < > U L.kXiXg.( ) !                             ",
"                            y k m P &XgXK.( n z Q , c I ~.oXoX@X@X@X@X|.h.c k < , , I g.pX,Xc.^ ! S                             ",
"                            e q B j Y.=Xl.W c w E k c I ~..XoX@X@X@X.X(.h.c w < , * c P _.].L N S F                             ",
"                            3 e l $ L P j c z 0 E q c g ~.|.|.@X@X.X.X(.j.l w , : * k s L L - v A A                             ",
"                            4 e t @ # $ # k w 9 x , k h /.).|.|.|. X X(.j.k 9 : & % q @ $ $ @ t C A                             ",
"                            4 e y r : 9 9 t q 6 x , w s E.(.(.|.).).(.^.I w 9 : & X q q 0 9 t y C A                             ",
"                            2 3 y 3 C A i y 9 6 x & q v U E.!.^.^./.!.l.c t 6 : & X 9 i A A y r i C                             ",
"                            2 3 e 4 e e y e 9 6 u 3 q w v g I Y Y I I c v t 2 ; & X 6 r r r r e i a                             ",
"                            1 4 e 4 e e e e 6 2 u 6 9 q w v M M M M M v t 9 & : O X 6 r r y e e i i                             ",
"                            o 2 7 2 7 7 7 7 6 & u 2 r 9 9 q q w w t t t e 2 2 : o X 2 r r r e 7 p i                             ",
"                            < 0 t 9 4 4 7 4 6 & u 2 e i 6 6 9 9 e e e e 6 7 & ; X X & e e 7 0 0 b Q                             ",
"                            z b #.E b b b ~ b 2 u 6 7 e i a a a a a a a r 6 2 ; X < Q Q Q E Q +.Q _                             ",
"                            o 2 0 7 7 p 7 C r & < r 7 6 6 6 7 e 7 7 6 6 6 2 6 ; X & i r p p 7 u r r y                           ",
"                            o 2 6 6 2 6 6 e r o : & 6 8 8 6 6 6 6 6 8 8 & O + O + & 7 6 6 2 6 r r 7 e                           ",
"                            + o o o o o o 2                                         o o o o o o o o                             ",
"                                                                                                                                ",
"                                                                                                                                ",
"                                                                                                                                ",
"                                                                                                                                ",
"                                                                                                                                ",
"                                                                                                                                ",
"                                                                                                                                ",
"                                                                                                                                ",
"                                                                                                                                ",
"                                                                                                                                "
};
