/* XPM */
static char *_d29fa1ce23c40259e2254e4be751549uXyZB5vlmUsuuFgA[] = {
/* columns rows colors chars-per-pixel */
"64 64 75 1 ",
"  c None",
". c #010101",
"X c #191304",
"o c #2D2205",
"O c #4B3A06",
"+ c #5F4807",
"@ c #694F06",
"# c #6D5309",
"$ c #241C05",
"% c #684F08",
"& c #A47D0A",
"* c #DBA60A",
"= c #F6BC0A",
"- c #FEC108",
"; c #FEC107",
": c #674F07",
"> c #120E03",
", c #C7980A",
"< c #0D0A03",
"1 c #654D09",
"2 c #EDB509",
"3 c #3C2E07",
"4 c #FBBF08",
"5 c #FCBF08",
"6 c #836309",
"7 c #F2B809",
"8 c #7F6109",
"9 c #080603",
"0 c #AE850A",
"q c #B58A0A",
"w c #151004",
"e c #CA9A0A",
"r c #94710A",
"t c #926F09",
"y c #352906",
"u c #E6B00A",
"i c #BD900A",
"p c #BA8E0A",
"a c #4E3B08",
"s c #483706",
"d c #D19F0A",
"f c #E0AA0A",
"g c #E2AD0A",
"h c #99750A",
"j c #EBB309",
"k c #8C6B0A",
"l c #121719",
"z c #1B2227",
"x c #070809",
"c c #425560",
"v c #465A65",
"b c #37454E",
"n c #E4AD08",
"m c #3A4953",
"M c #222B31",
"N c #D7A409",
"B c #1C2328",
"V c #755908",
"C c #D4A20B",
"Z c #D5A30C",
"A c #3E4F59",
"S c #2D3940",
"D c #C3950A",
"F c #5D4708",
"G c #DDA80A",
"H c #554108",
"J c #5C4707",
"K c #F4B909",
"L c #DCA70A",
"P c #433307",
"I c #725609",
"U c #433308",
"Y c #5E4809",
"T c #D2A009",
"R c white",
/* pixels */
"                                                                ",
"                                                                ",
"                                                                ",
"                                                                ",
"                                                                ",
"                                                                ",
"                                                                ",
"                                                                ",
"                                                                ",
"                                                                ",
"                         ..............                         ",
"                      .....XoO+@#+OoX.....                      ",
"                    ....$%&*=-;;;;-=*&:$....                    ",
"                  ...>#,---;;;;;;;;;;---,#>...                  ",
"                ...<12;;;;;;;;;;;;;;;;;;;;21<...                ",
"               ...3,4;;;;;;;;;;;;;;;;;;;;;-5,3...               ",
"              ..<67;;;;;;;;;;;;;;;;;;;;;;;;;;78<..              ",
"             ..90-;;;;;;;;;;;;;;;;;;;;;;;;;;;;;09..             ",
"            ..<q;;;;;;;;;;;;;;;;;;;;;;;;;;;;;;;;q<..            ",
"           ..we;;;;;;;;;;;;;;;;;;;;;;;;;;;;;;;;;;e>..           ",
"           .9r-;;;;;;;;;;;;;;;;;;;;;;;;;;;;;;;;;;;t..           ",
"          ..14;;;;;;;;;;;;;;;;;;;;;;;;;;;;;;;;;;;;41..          ",
"         ..yu;;;;;;;;;;;;;;;;;;;;;;;;;;;;;;;;;;;;;;uy..         ",
"         ..i;;;;;;;;;;;;;;;;;;;;;;;;;;;;;;;;;;;;;;;;p..         ",
"        ..a-;;;;;;;;;;;;;;;;;;;;;;;;;;;;;;;;;;;;;;;;-O..        ",
"        ..i;;;;;;;;;;;;;;;;;;;;;;;;;;;;;;;;;;;;;;;;;;p..        ",
"       ..o4;;;;;;;;;;;;;;;;;;;;;;;;;;;;;;;;;;;;;;;;;;4o..       ",
"       ..&;;;;;;;;;;;;;;;;;;;;;;;;;;;;;;;;;;;;;;;;;;;;&..       ",
"       .wu;;;;;;;;;;;;;;;;;;;;;;;;;;;;;;;;;;;;;;;;;;;;uw.       ",
"      ..s-;;;;;;;;;;;;;;;;;;;;;;;;;;;;;;;;;;;;;;;;;;;;-s.       ",
"      ..6;;;;;;;;;;;;;;;;;;;;;;;;;;;;;;;;;;;;;;;;;;;;;;6..      ",
"      ..0;;;;;;;;;;;;;;;;;;;;;;;;;;;;;;;;;;;;;;;;;;;;;;0..      ",
"      ..d;;;;;;;;;;;;;;;;;;;;;;;-;;;;;;;;;;;;;;;;;;;;;;d..      ",
"      .<f;;;;;;;;;;;;;;;;;;;;;;qq-;;;;;;;;;;;gh6p4;;;;;f<.      ",
"      .wj;;;;;;;;;;;;;;;;;;;;-k..k-;;;;;;;;4k<...$e;;;;jw.      ",
"      .X2;;;;;;;;;;;;;;;;;;;-k...9k-;;;;;;-k9.lzx.$j;;;2X.      ",
"      .Xj;;;;;;;;;;;;;;;;;;-q>....>q-;;;;;-$.zcvbx.&;;;jw.      ",
"      .>n;;;;;;;;;;;;;;;;;;&w..  ..w&;;;;;j..mvvvM.#;;;n>.      ",
"      .9N;;;;;;;;;;;;;;;;;i<..    ..<i;;;;7..bvvvB.V;;;C9.      ",
"      ..i;;;;;;;;;;;;;;;;CX..      ..XZ-;;-y.lAvS..q;;;p..      ",
"      ..t;;;;;;;;;;;;;;;D>..        ..>D;;;DX.....a=;;-k..      ",
"      ..F-;;;;;;;;;;;;;G$..          ..$G;;-Do..<H2;;;-J..      ",
"       .$K;;;;;;;;;;;;fy..            ..yf;;;7eDG-;;;;7$.       ",
"       ..p;;;;;;;;;;;L$..              ..$G;;;;;;;;;;;p9.       ",
"       ..H-;;;;;;;;;KP..                ..PK;;;;;;;;;;H..       ",
"        .9G;;;;;;;;uO..                  ..au;;;;;;;;G9.        ",
"        ..I;;;;;;;7P..                    ..U7;;;;;;;#..        ",
"         .>n;;;;;=1..                      ..1=;;;;-g>.         ",
"         ..YK;;;K1..                        ..1K;;;7F..         ",
"          ..h;;-#..                          ..#-;-h..          ",
"          ..>T-k...                          ...k-d>..          ",
"           ..o#...                            ...#o..           ",
"            .....                              .....            ",
"             ...                                ...             ",
"                                                                ",
"                                                                ",
"                                                                ",
"                                                                ",
"                                                                ",
"                                                                ",
"                                                                ",
"                                                                ",
"                                                                ",
"                                                                "
};
