/* XPM */
static char *_e205e3a984e4733c3e31a4129a0d4a7njpSHKMZknVreNI2[] = {
/* columns rows colors chars-per-pixel */
"64 64 75 1 ",
"  c None",
". c #010101",
"X c #2D2205",
"o c #6D5309",
"O c #120E03",
"+ c #D19F0A",
"@ c #FEC108",
"# c #8C6B0A",
"$ c #D2A009",
"% c #99750A",
"& c #FEC107",
"* c #5D4708",
"= c #F2B809",
"- c #F4B909",
"; c #654D09",
": c #5E4809",
"> c #E2AD0A",
", c #F6BC0A",
"< c #E4AD08",
"1 c #433308",
"2 c #433307",
"3 c #725609",
"4 c #080603",
"5 c #DDA80A",
"6 c #E6B00A",
"7 c #4E3B08",
"8 c #4B3A06",
"9 c #554108",
"0 c #BA8E0A",
"q c #241C05",
"w c #DCA70A",
"e c #C3950A",
"r c #CA9A0A",
"t c #E0AA0A",
"y c #352906",
"u c #5C4707",
"i c #EDB509",
"p c #0D0A03",
"a c #191304",
"s c #926F09",
"d c #B58A0A",
"f c #2D3940",
"g c #465A65",
"h c #3E4F59",
"j c #121719",
"k c #D5A30C",
"l c #D4A20B",
"z c #BD900A",
"x c #755908",
"c c #1C2328",
"v c #37454E",
"b c #D7A409",
"n c #222B31",
"m c #3A4953",
"M c #EBB309",
"N c #A47D0A",
"B c #151004",
"V c #070809",
"C c #425560",
"Z c #1B2227",
"A c #FBBF08",
"S c #836309",
"D c #AE850A",
"F c #483706",
"G c #94710A",
"H c #7F6109",
"J c #3C2E07",
"K c #C7980A",
"L c #FCBF08",
"P c #674F07",
"I c #DBA60A",
"U c #684F08",
"Y c #5F4807",
"T c #694F06",
"R c white",
/* pixels */
"                                                                ",
"                                                                ",
"                                                                ",
"                                                                ",
"                                                                ",
"                                                                ",
"                                                                ",
"                                                                ",
"                                                                ",
"                                                                ",
"             ...                                ...             ",
"            .....                              .....            ",
"           ..Xo...                            ...oX..           ",
"          ..O+@#...                          ...#@$O..          ",
"          ..%@&@o..                          ..o@&&%..          ",
"         ..*=&&&-;..                        ..;-&&&-:..         ",
"         .O>@&&&&,;..                      ..;,&&&&&<O.         ",
"        ..o&&&&&&&=1..                    ..2=&&&&&&&3..        ",
"        .45&&&&&&&&67..                  ..86&&&&&&&&54.        ",
"       ..9&&&&&&&&&&-2..                ..2-&&&&&&&&&@9..       ",
"       .40&&&&&&&&&&&5q..              ..qw&&&&&&&&&&&0..       ",
"       .q=&&&&@5er=&&&ty..            ..yt&&&&&&&&&&&&-q.       ",
"      ..u@&&&i9p..Xe@&&5q..          ..q5&&&&&&&&&&&&&@*..      ",
"      ..#@&&,7.....ae&&&eO..        ..Oe&&&&&&&&&&&&&&&s..      ",
"      ..0&&&d..fghj.y@&&@ka..      ..al&&&&&&&&&&&&&&&&z..      ",
"      .4l&&&x.cgggv..=&&&&zp..    ..pz&&&&&&&&&&&&&&&&&b4.      ",
"      .O<&&&o.ngggm..M&&&&&NB..  ..BN&&&&&&&&&&&&&&&&&&<O.      ",
"      .BM&&&N.VvgCZ.q@&&&&&@dO....Od@&&&&&&&&&&&&&&&&&&Ma.      ",
"      .ai&&&Mq.VZj.4#@&&&&&&@#4...#@&&&&&&&&&&&&&&&&&&&ia.      ",
"      .BM&&&&rq...p#A&&&&&&&&@#..#@&&&&&&&&&&&&&&&&&&&&MB.      ",
"      .pt&&&&&A0S%>&&&&&&&&&&&@dd&&&&&&&&&&&&&&&&&&&&&&tp.      ",
"      ..+&&&&&&&&&&&&&&&&&&&&&&@&&&&&&&&&&&&&&&&&&&&&&&+..      ",
"      ..D&&&&&&&&&&&&&&&&&&&&&&&&&&&&&&&&&&&&&&&&&&&&&&D..      ",
"      ..S&&&&&&&&&&&&&&&&&&&&&&&&&&&&&&&&&&&&&&&&&&&&&&S..      ",
"       .F@&&&&&&&&&&&&&&&&&&&&&&&&&&&&&&&&&&&&&&&&&&&&@F..      ",
"       .B6&&&&&&&&&&&&&&&&&&&&&&&&&&&&&&&&&&&&&&&&&&&&6B.       ",
"       ..N&&&&&&&&&&&&&&&&&&&&&&&&&&&&&&&&&&&&&&&&&&&&N..       ",
"       ..XA&&&&&&&&&&&&&&&&&&&&&&&&&&&&&&&&&&&&&&&&&&AX..       ",
"        ..0&&&&&&&&&&&&&&&&&&&&&&&&&&&&&&&&&&&&&&&&&&z..        ",
"        ..8@&&&&&&&&&&&&&&&&&&&&&&&&&&&&&&&&&&&&&&&&@7..        ",
"         ..0&&&&&&&&&&&&&&&&&&&&&&&&&&&&&&&&&&&&&&&&z..         ",
"         ..y6&&&&&&&&&&&&&&&&&&&&&&&&&&&&&&&&&&&&&&6y..         ",
"          ..;A&&&&&&&&&&&&&&&&&&&&&&&&&&&&&&&&&&&&A;..          ",
"           ..s&&&&&&&&&&&&&&&&&&&&&&&&&&&&&&&&&&&@G4.           ",
"           ..Or&&&&&&&&&&&&&&&&&&&&&&&&&&&&&&&&&&rB..           ",
"            ..pd&&&&&&&&&&&&&&&&&&&&&&&&&&&&&&&&dp..            ",
"             ..4D&&&&&&&&&&&&&&&&&&&&&&&&&&&&&@D4..             ",
"              ..pH=&&&&&&&&&&&&&&&&&&&&&&&&&&=Sp..              ",
"               ...JKL@&&&&&&&&&&&&&&&&&&&&&AKJ...               ",
"                ...p;i&&&&&&&&&&&&&&&&&&&&i;p...                ",
"                  ...OoK@@@&&&&&&&&&&@@@KoO...                  ",
"                    ....qPNI,@&&&&@,INUq....                    ",
"                      .....aX8YoTY8Xa.....                      ",
"                         ..............                         ",
"                                                                ",
"                                                                ",
"                                                                ",
"                                                                ",
"                                                                ",
"                                                                ",
"                                                                ",
"                                                                ",
"                                                                ",
"                                                                "
};
