/* XPM */
static char *b25015e5fdc54f77e3e12d49ae53fd1fmHlxOXwbrRqYiQbT[] = {
/* columns rows colors chars-per-pixel */
"64 64 74 1 ",
"  c None",
". c #010101",
"X c #080603",
"o c #0D0A03",
"O c #070809",
"+ c #120E03",
"@ c #151004",
"# c #191304",
"$ c #121719",
"% c #241C05",
"& c #2D2205",
"* c #352906",
"= c #3C2E07",
"- c #1B2227",
"; c #1C2328",
": c #222B31",
"> c #433307",
", c #483706",
"< c #4B3A06",
"1 c #433308",
"2 c #4E3B08",
"3 c #5C4707",
"4 c #5F4807",
"5 c #554108",
"6 c #5D4708",
"7 c #5E4809",
"8 c #674F07",
"9 c #694F06",
"0 c #654D09",
"q c #684F08",
"w c #6D5309",
"e c #725609",
"r c #755908",
"t c #7F6109",
"y c #2D3940",
"u c #37454E",
"i c #3A4953",
"p c #3E4F59",
"a c #425560",
"s c #465A65",
"d c #836309",
"f c #8C6B0A",
"g c #926F09",
"h c #94710A",
"j c #99750A",
"k c #A47D0A",
"l c #AE850A",
"z c #B58A0A",
"x c #BA8E0A",
"c c #BD900A",
"v c #C3950A",
"b c #C7980A",
"n c #CA9A0A",
"m c #D19F0A",
"M c #D2A009",
"N c #D4A20B",
"B c #D7A409",
"V c #D5A30C",
"C c #DBA60A",
"Z c #DCA70A",
"A c #DDA80A",
"S c #E0AA0A",
"D c #E2AD0A",
"F c #E4AD08",
"G c #E6B00A",
"H c #EBB309",
"J c #EDB509",
"K c #F2B809",
"L c #F4B909",
"P c #F6BC0A",
"I c #FBBF08",
"U c #FCBF08",
"Y c #FEC107",
"T c #FEC108",
/* pixels */
"                                                                ",
"                                                                ",
"                                                                ",
"                                                                ",
"                                                                ",
"                                                                ",
"                      ............                              ",
"                   ......X+@#@o.......                          ",
"                 ...X%3fxNFHJHSmld,@....                        ",
"               ...X5xKTTYYYYYYYYYYTGk&....                      ",
"             ...+wAYYYYYYYYYYYYYYYYYYIx<...                     ",
"            ...6DYYYYYYYYYYYYYYYYYYYYYYTx*...                   ",
"           ..+jKTYYYYYYPzrwkHYYYYYYYYYYYYG0...                  ",
"          ..&mTYYYYYYYJ2....%nYYYYYYYYYYYYIg+..                 ",
"          ..wTYYYYYYYT5..;:O.%IYYYYYYYYYYYYYno..                ",
"          ...fTYYYYYYAo.yssuO.xYYYYYYYYYYYYYYzX..               ",
"           ...wLYYYYYv..ssss-.dYYYYYYYYYYYYYYYlo..              ",
"            ...0PYYYYn..pssa$.jYYYYYYYYYYYYYYYYt..              ",
"             ...0KYYYK&.$ui-.oDYYYYYYYYYYYYYYYYK=..             ",
"               ..1GYYYv#....XfYYYYYYYYYYYYYYYYYYbo.             ",
"                ..2LYYTv*..%fIYYYYYYYYYYYYYYYYYYU0..            ",
"                 ..>AYYYTKHTTYYYYYYYYYYYYYYYYYYYTJ+.            ",
"                  ..%SYYYYYYYYYYYYYYYYYYYYYYYYYYYYw..           ",
"                   ..*AYYYYYYYYYYYYYYYYYYYYYYYYYYYb..           ",
"                    ..%vTYYYYYYYYYYYYYYYYYYYYYYYYYT%.           ",
"                     ..+VYYYYYYYYYYYYYYYYYYYYYYYYYT8..          ",
"                      ..#cYYYYYYYYYYYYYYYYYYYYYYYYTk..          ",
"                       ..okTYYYYYYYYYYYYYYYYYYYYYYYC#.          ",
"                        ..@zTYYYYYYYYYYYYYYYYYYYYYYP&.          ",
"                         ..+fTYYYYYYYYYYYYYYYYYYYYYT<.          ",
"                          ..XfTYYYYYYYYYYYYYYYYYYYYY4.          ",
"                           ...zTYYYYYYYYYYYYYYYYYYYYw.          ",
"                           ...zYYYYYYYYYYYYYYYYYYYYY9.          ",
"                          ...fYYYYYYYYYYYYYYYYYYYYYY4.          ",
"                         ..+fTYYYYYYYYYYYYYYYYYYYYYT<.          ",
"                        ..@zTYYYYYYYYYYYYYYYYYYYYYYP&.          ",
"                       ..okTYYYYYYYYYYYYYYYYYYYYYYYC#.          ",
"                      ..#cYYYYYYYYYYYYYYYYYYYYYYYYTk..          ",
"                     ..+NYYYYYYYYYYYYYYYYYYYYYYYYYTq..          ",
"                    ..%vYYYYYYYYYYYYYYYYYYYYYYYYYYT%.           ",
"                   ..*AYYYYYYYYYYYYYYYYYYYYYYYYYYYb..           ",
"                  ..%SYYYYYYYYYYYYYYYYYYYYYYYYYYYYw..           ",
"                 ..>ZYYYYYYYYYYYYYYYYYYYYYYYYYYYYJ+.            ",
"                ..<LYYYYYYYYYYYYYYYYYYYYYYYYYYYYI0..            ",
"               ..>GYYYYYYYYYYYYYYYYYYYYYYYYYYYYYbo.             ",
"             ...0KYYYYYYYYYYYYYYYYYYYYYYYYYYYYYK=..             ",
"            ...0PYYYYYYYYYYYYYYYYYYYYYYYYYYYYYTd..              ",
"           ...wLYYYYYYYYYYYYYYYYYYYYYYYYYYYYYYlo..              ",
"          ...fTYYYYYYYYYYYYYYYYYYYYYYYYYYYYYYzX..               ",
"          ..wTYYYYYYYYYYYYYYYYYYYYYYYYYYYYYTno..                ",
"          ..&MYYYYYYYYYYYYYYYYYYYYYYYYYYYYIh@..                 ",
"           ..+jLYYYYYYYYYYYYYYYYYYYYYYYYYG0X..                  ",
"            ...7FYYYYYYYYYYYYYYYYYYYYYYTc*...                   ",
"             ...+eATYYYYYYYYYYYYYYYYYIc2...                     ",
"               ...X5xLTYYYYYYYYYYYTGk&....                      ",
"                 ....%6gcBFHJHSmld,@....                        ",
"                   ......X+##@o.......                          ",
"                      .............                             ",
"                                                                ",
"                                                                ",
"                                                                ",
"                                                                ",
"                                                                ",
"                                                                "
};
