/* XPM */
static char *fc7b6ecb54064743b1d63e5f2a59ac96odW9i9JtkfrQUGqq[] = {
/* columns rows colors chars-per-pixel */
"64 64 119 2 ",
"   c None",
".  c #010101",
"X  c #080603",
"o  c #0D0A03",
"O  c #070809",
"+  c #120E03",
"@  c #151004",
"#  c #191304",
"$  c #121719",
"%  c #241C05",
"&  c #2D2205",
"*  c #352906",
"=  c #3C2E07",
"-  c #1B2227",
";  c #1C2328",
":  c #222B31",
">  c #433307",
",  c #483706",
"<  c #4B3A06",
"1  c #433308",
"2  c #4E3B08",
"3  c #5C4707",
"4  c #5F4807",
"5  c #554108",
"6  c #5D4708",
"7  c #5E4809",
"8  c #674F07",
"9  c #694F06",
"0  c #654D09",
"q  c #684F08",
"w  c #6D5309",
"e  c #725609",
"r  c #755908",
"t  c #7F6109",
"y  c #2D3940",
"u  c #37454E",
"i  c #3A4953",
"p  c #3E4F59",
"a  c #425560",
"s  c #465A65",
"d  c #836309",
"f  c #8C6B0A",
"g  c #926F09",
"h  c #94710A",
"j  c #99750A",
"k  c #A47D0A",
"l  c #AE850A",
"z  c #B58A0A",
"x  c #BA8E0A",
"c  c #BD900A",
"v  c #C3950A",
"b  c #C7980A",
"n  c #CA9A0A",
"m  c #D19F0A",
"M  c #D4A20B",
"N  c #D7A309",
"B  c #D7A409",
"V  c #D5A30C",
"C  c #D2A009",
"Z  c #DBA60A",
"A  c #DBA70A",
"S  c #DCA70A",
"D  c #DCA809",
"F  c #DEA909",
"G  c #DDA80A",
"H  c #DDA90A",
"J  c #DEA90A",
"K  c #DFAA0A",
"L  c #E1AB08",
"P  c #E0AB09",
"I  c #E0AA0A",
"U  c #E0AB0A",
"Y  c #E2AD0A",
"T  c #E3AE0A",
"R  c #E4AD08",
"E  c #E5AE09",
"W  c #E6B009",
"Q  c #E6B00A",
"!  c #E7B00A",
"~  c #E9B108",
"^  c #E9B109",
"/  c #EBB209",
"(  c #EBB309",
")  c #E8B00A",
"_  c #EBB30A",
"`  c #ECB408",
"'  c #ECB409",
"]  c #EDB509",
"[  c #ECB40A",
"{  c #EDB50A",
"}  c #F3B908",
"|  c #F2B809",
" . c #F3B909",
".. c #F1B80A",
"X. c #F2B90A",
"o. c #F4B909",
"O. c #F4BA09",
"+. c #F7BC08",
"@. c #F7BD08",
"#. c #F6BC09",
"$. c #F7BC09",
"%. c #F6BC0A",
"&. c #F9BE08",
"*. c #FABE08",
"=. c #FBBF08",
"-. c #FABE09",
";. c #FBBF09",
":. c #FCBF08",
">. c #FDC007",
",. c #FDC107",
"<. c #FEC107",
"1. c #FCC008",
"2. c #FDC008",
"3. c #FDC108",
"4. c #FCC009",
"5. c #FEC108",
"6. c #FEC109",
"7. c #FEC208",
"8. c #FEC10A",
/* pixels */
"                                                                                                                                ",
"                                                                                                                                ",
"                                                                                                                                ",
"                                                                                                                                ",
"                                                                                                                                ",
"                                                                                                                                ",
"                                                            . . . . . . . . . . . .                                             ",
"                                                    . . . . . . . o @ # @ + X . . . . . .                                       ",
"                                                . . . . @ , d l m I ( ] ( R M x f 3 % X . . .                                   ",
"                                            . . . . & k Q 5.<.<.<.<.<.<.<.<.<.<.5.5.| x 5 X . . .                               ",
"                                          . . . < x =.<.<.<.<.<.<.<.<.<.<.<.<.<.<.<.<.<.<.G w + . . .                           ",
"                                      . . . * x 5.<.<.<.<.<.<.<.<.<.<.<.<.<.<.<.<.<.<.<.<.<.<.Y 6 . . .                         ",
"                                    . . . 0 Q <.<.<.<.<.<.<.<.<.<.<.<.( k w r z %.<.<.<.<.<.<.5.| j + . .                       ",
"                                  . . + g =.<.<.<.<.<.<.<.<.<.<.<.<.n % . . . . 2 ] <.<.<.<.<.<.<.5.m & . .                     ",
"                                . . o n <.<.<.<.<.<.<.<.<.<.<.<.<.=.% . O : ; . . 5 5.<.<.<.<.<.<.<.5.w . .                     ",
"                              . . X z <.<.<.<.<.<.<.<.<.<.<.<.<.<.x . O u s s y . o G <.<.<.<.<.<.5.f . . .                     ",
"                            . . o l <.<.<.<.<.<.<.<.<.<.<.<.<.<.<.d . - s s s s . . v <.<.<.<.<.o.w . . .                       ",
"                            . . t <.<.<.<.<.<.<.<.<.<.<.<.<.<.<.<.j . $ a s s p . . n <.<.<.<.%.0 . . .                         ",
"                          . . = | <.<.<.<.<.<.<.<.<.<.<.<.<.<.<.<.Y o . - i u $ . & | <.<.<.| 0 . . .                           ",
"                          . o b <.<.<.<.<.<.<.<.<.<.<.<.<.<.<.<.<.<.f X . . . . # v <.<.<.Q 1 . .                               ",
"                        . . 0 :.<.<.<.<.<.<.<.<.<.<.<.<.<.<.<.<.<.<.=.f % . . * v 5.<.<.o.2 . .                                 ",
"                        . + ] 5.<.<.<.<.<.<.<.<.<.<.<.<.<.<.<.<.<.<.<.5.5.( | 5.<.<.<.G > . .                                   ",
"                      . . w <.<.<.<.<.<.<.<.<.<.<.<.<.<.<.<.<.<.<.<.<.<.<.<.<.<.<.<.I % . .                                     ",
"                      . . b <.<.<.<.<.<.<.<.<.<.<.<.<.<.<.<.<.<.<.<.<.<.<.<.<.<.<.G * . .                                       ",
"                      . % 5.<.<.<.<.<.<.<.<.<.<.<.<.<.<.<.<.<.<.<.<.<.<.<.<.<.5.v % . .                                         ",
"                    . . 8 5.<.<.<.<.<.<.<.<.<.<.<.<.<.<.<.<.<.<.<.<.<.<.<.<.<.V + . .                                           ",
"                    . . k 5.<.<.<.<.<.<.<.<.<.<.<.<.<.<.<.<.<.<.<.<.<.<.<.<.c # . .                                             ",
"                    . # Z <.<.<.<.<.<.<.<.<.<.<.<.<.<.<.<.<.<.<.<.<.<.<.5.k o . .                                               ",
"                    . & %.<.<.<.<.<.<.<.<.<.<.<.<.<.<.<.<.<.<.<.<.<.<.5.z @ . .                                                 ",
"                    . < 5.<.<.<.<.<.<.<.<.<.<.<.<.<.<.<.<.<.<.<.<.<.5.f + . .                                                   ",
"                    . 4 <.<.<.<.<.<.<.<.<.<.<.<.<.<.<.<.<.<.<.<.<.5.f X . .                                                     ",
"                    . w <.<.<.<.<.<.<.<.<.<.<.<.<.<.<.<.<.<.<.<.5.z . . .                                                       ",
"                    . 9 <.<.<.<.<.<.<.<.<.<.<.<.<.<.<.<.<.<.<.<.<.z . . .                                                       ",
"                    . 4 <.<.<.<.<.<.<.<.<.<.<.<.<.<.<.<.<.<.<.<.<.<.f . . .                                                     ",
"                    . < 5.<.<.<.<.<.<.<.<.<.<.<.<.<.<.<.<.<.<.<.<.<.5.f + . .                                                   ",
"                    . & %.<.<.<.<.<.<.<.<.<.<.<.<.<.<.<.<.<.<.<.<.<.<.5.z @ . .                                                 ",
"                    . # Z <.<.<.<.<.<.<.<.<.<.<.<.<.<.<.<.<.<.<.<.<.<.<.5.k o . .                                               ",
"                    . . k 5.<.<.<.<.<.<.<.<.<.<.<.<.<.<.<.<.<.<.<.<.<.<.<.<.c # . .                                             ",
"                    . . q 5.<.<.<.<.<.<.<.<.<.<.<.<.<.<.<.<.<.<.<.<.<.<.<.<.<.M + . .                                           ",
"                      . % 5.<.<.<.<.<.<.<.<.<.<.<.<.<.<.<.<.<.<.<.<.<.<.<.<.<.<.v % . .                                         ",
"                      . . b <.<.<.<.<.<.<.<.<.<.<.<.<.<.<.<.<.<.<.<.<.<.<.<.<.<.<.G * . .                                       ",
"                      . . w <.<.<.<.<.<.<.<.<.<.<.<.<.<.<.<.<.<.<.<.<.<.<.<.<.<.<.<.I % . .                                     ",
"                        . + ] <.<.<.<.<.<.<.<.<.<.<.<.<.<.<.<.<.<.<.<.<.<.<.<.<.<.<.<.S > . .                                   ",
"                        . . 0 =.<.<.<.<.<.<.<.<.<.<.<.<.<.<.<.<.<.<.<.<.<.<.<.<.<.<.<.<.o.< . .                                 ",
"                          . o b <.<.<.<.<.<.<.<.<.<.<.<.<.<.<.<.<.<.<.<.<.<.<.<.<.<.<.<.<.Q > . .                               ",
"                          . . = | <.<.<.<.<.<.<.<.<.<.<.<.<.<.<.<.<.<.<.<.<.<.<.<.<.<.<.<.<.| 0 . . .                           ",
"                            . . d 5.<.<.<.<.<.<.<.<.<.<.<.<.<.<.<.<.<.<.<.<.<.<.<.<.<.<.<.<.<.%.0 . . .                         ",
"                            . . o l <.<.<.<.<.<.<.<.<.<.<.<.<.<.<.<.<.<.<.<.<.<.<.<.<.<.<.<.<.<.o.w . . .                       ",
"                              . . X z <.<.<.<.<.<.<.<.<.<.<.<.<.<.<.<.<.<.<.<.<.<.<.<.<.<.<.<.<.<.5.f . . .                     ",
"                                . . o n 5.<.<.<.<.<.<.<.<.<.<.<.<.<.<.<.<.<.<.<.<.<.<.<.<.<.<.<.<.<.5.w . .                     ",
"                                  . . @ h =.<.<.<.<.<.<.<.<.<.<.<.<.<.<.<.<.<.<.<.<.<.<.<.<.<.<.<.<.C & . .                     ",
"                                    . . X 0 Q <.<.<.<.<.<.<.<.<.<.<.<.<.<.<.<.<.<.<.<.<.<.<.<.<.o.j + . .                       ",
"                                      . . . * c 5.<.<.<.<.<.<.<.<.<.<.<.<.<.<.<.<.<.<.<.<.<.<.R 7 . . .                         ",
"                                          . . . 2 c =.<.<.<.<.<.<.<.<.<.<.<.<.<.<.<.<.<.5.G e + . . .                           ",
"                                            . . . . & k Q 5.<.<.<.<.<.<.<.<.<.<.<.5.o.x 5 X . . .                               ",
"                                                . . . . @ , d l m I ( ] ( R B c g 6 % . . . .                                   ",
"                                                    . . . . . . . o @ # # + X . . . . . .                                       ",
"                                                          . . . . . . . . . . . . .                                             ",
"                                                                                                                                ",
"                                                                                                                                ",
"                                                                                                                                ",
"                                                                                                                                ",
"                                                                                                                                ",
"                                                                                                                                "
};
