/* XPM */
static char *_b4900a23e0d4a57aaf87fe36da7cdf5BzRUNKtEGwX3kwzB[] = {
/* columns rows colors chars-per-pixel */
"64 64 153 2 ",
"   c #3B342A",
".  c #3F382E",
"X  c #40392F",
"o  c #443D33",
"O  c #474036",
"+  c #484137",
"@  c #4B443A",
"#  c #4F483F",
"$  c #50483F",
"%  c #544C43",
"&  c #575047",
"*  c #585047",
"=  c #575048",
"-  c #5C544B",
";  c #5F584F",
":  c #60584F",
">  c #645C53",
",  c #685F56",
"<  c #676057",
"1  c #686057",
"2  c #6C635B",
"3  c #70675F",
"4  c #71685F",
"5  c #706760",
"6  c #746B63",
"7  c #786F67",
"8  c #786F68",
"9  c #797067",
"0  c #7C746B",
"q  c #80776E",
"w  c #81786F",
"e  c #807770",
"r  c #857B73",
"t  c #887F76",
"y  c #8A8077",
"u  c #8D837B",
"i  c #90877E",
"p  c #92887F",
"a  c #958B82",
"s  c #998F85",
"d  c #999087",
"f  c #9A9086",
"g  c #9B9086",
"h  c #9A9087",
"j  c #9B9087",
"k  c #9A9187",
"l  c #9B9187",
"z  c #9A9087",
"x  c #9B9188",
"c  c #9B9288",
"v  c #9B9289",
"b  c #9C9188",
"n  c #9C9189",
"m  c #9C9288",
"M  c #9C9289",
"N  c #9D9289",
"B  c #9C9389",
"V  c #9D9389",
"C  c #9E9389",
"Z  c #9D938A",
"A  c #9E938A",
"S  c #9F938A",
"D  c #9D948A",
"F  c #9E948A",
"G  c #9E948B",
"H  c #9F948B",
"J  c #9F958B",
"K  c #9F958C",
"L  c #9D938A",
"P  c #A0948B",
"I  c #A0958B",
"U  c #A0958C",
"Y  c #A0968C",
"T  c #A1968C",
"R  c #A0968D",
"E  c #A1968D",
"W  c #A1978D",
"Q  c #A2968D",
"!  c #A2978D",
"~  c #A1978E",
"^  c #A2978E",
"/  c #A3978E",
"(  c #A1968D",
")  c #A2988E",
"_  c #A3988E",
"`  c #A3988F",
"'  c #A3998F",
"]  c #A4988F",
"[  c #A3988F",
"{  c #A39990",
"}  c #A49990",
"|  c #A49A90",
" . c #A59A90",
".. c #A59A91",
"X. c #A59B91",
"o. c #A59B92",
"O. c #A79B92",
"+. c #A69C92",
"@. c #A79C92",
"#. c #A79D92",
"$. c #A79C93",
"%. c #A79D93",
"&. c #A69C92",
"*. c #A89C92",
"=. c #A89C93",
"-. c #A89D93",
";. c #A99D93",
":. c #A89E94",
">. c #AA9E94",
",. c #AA9E95",
"<. c #AB9F95",
"1. c #AB9F96",
"2. c #A99E94",
"3. c #AAA096",
"4. c #ABA096",
"5. c #ABA197",
"6. c #ACA096",
"7. c #ADA196",
"8. c #ACA097",
"9. c #ADA097",
"0. c #ADA297",
"q. c #ACA197",
"w. c #AEA198",
"e. c #AEA298",
"r. c #AEA299",
"t. c #AFA299",
"y. c #AFA399",
"u. c #AEA299",
"i. c #B0A39A",
"p. c #B1A39A",
"a. c #B0A49A",
"s. c #B1A49A",
"d. c #B1A49B",
"f. c #B1A59B",
"g. c #B2A59C",
"h. c #B3A69C",
"j. c #B3A69D",
"k. c #B4A79D",
"l. c #B4A79E",
"z. c #B2A59C",
"x. c #B6A99F",
"c. c #B7AAA0",
"v. c #B9ACA2",
"b. c #BAACA2",
"n. c #BFB0A6",
"m. c #BFB1A7",
"M. c #C6B7AD",
"N. c #C7B7AD",
"B. c #C1B3A9",
"V. c #C7B8AE",
"C. c #C8B9AF",
"Z. c #CDBDB2",
"A. c #D6C5BB",
/* pixels */
"s h Z p > 1 ) Z Z Z Z Z Z h s s s s s h Z x h u 1 s s.e.@.) <.@.4.<.@.@. .<.Z Z x : 7 M.s.@.R 4. . .@.@. .4.@.@. .@.@.@.<.R Z Z ",
"h Z Z a 1 p D K Z Z Z Z h Z Z s s s s Z h s s i > t s.R D K R R ) )  . .D g.Z Z Z - Z M.<.@.@.{ Z Z D D u <.D D h ) ) R Z Z Z Z ",
"a =.Z y 1 s a x Z h s s Z h s s Z D Z s s a a y % o t h D D Z Z Z Z Z Z Z  .Z s x * i.6.4.@.@.R Z R x a Z )  .K R s.6.K Z Z Z Z ",
"s Z u 6 1 Z h s s s s s h h s i r 0 9 6 1 > - % o o o % * 1 1 6 9 t 0 0 u i i y r + <.v.@.<.@.Z a  .Z Z D R Z  .<.Z a h Z Z Z Z ",
"u r 0 # % 6 t y u u 0 > > - # o o + 6 u h Z Z I I Z y s h p u r 0 9 1 1 > > - % o $ a n.R 4. .Z Z Z Z Z Z Z Z Z Z Z h ) h p a Z ",
"9 1 *     o # * - - - * * * % +   * a g.g.g.g.k.g.g.g.g.g.k.k.g.e.<.) <.R s y 8 + o 9 u  .g.R t t y y u u u u y y t t t r 0 e t ",
"> 2 6 r p s Z D I R i u s s s r O 6 e.g.g.6.g.g.s. .g.g.g.g.] i.g.6.g.g.g.g.s.u % - * 6 6 6 : * 1 1 > > > - - * * % % % > - 2 6 ",
"R  .) @. .R D D K D Z Z Z s h a 6 @ u <. .@.<.e.e.e.e.<.<.<.=.=. .s  .R R R D r * ; * : > > 1 2 3 2 1 6 6 7 9 9 ;   % 0 h =.6.=.",
"s Z Z ) R R Z a x Z Z Z Z h s a q + 1 s =.Z D K R R K D Z Z Z Z Z K R R s a y 1 % 0 s h h Z D Z Z h u Z Z Z x x w + u  . .R K Z ",
"s Z R @.D Z Z Z Z D ] R h s s s a y * 9 =.<.R Z x s i a Z D Z s a t 0 5 - > *   # y R Z Z Z Z Z Z Z Z x Z Z a h 6 % D Z Z Z a Z ",
"s Z K Z Z R Z Z Z R D s h s s s a s 6 & 6 7 t r 0 6 1 1 1 4 9 q 4 6 7 0 r r r - o y { K h s Z Z Z Z Z x s s s y 1 % Z a D Z Z Z ",
"s Z Z Z i a h s h =.h s p s s h a 0 %       + 9 r i  .g.B.B.c.e.e.@.@. .@. .<.h * y Z h x x Z Z Z Z s s s s a h t * s s D Z Z Z ",
"s Z h h s h s s b s s u p t 9 1 > 2 0 0 > % c.v.e.e.g.s.e.<.@.) @.@.<.=.@.@.) Z > 6 y p u u a t u s s s s s u h u * Z K Z Z Z Z ",
"a a s s s s s a i y 0 6 2 2 7 t a K R Z r - @.@.@.a s.@.) @.@. .s.c.6.@. .@.@.a 2   o + # % % o % w u a a s a y 9 + r h s s s s ",
"a h D  .] D i 6 > > 6 t u s h h Z Z a Z y 0  .@.@.=.e.@.<.@.@.@.@.@.@. .R ) Z Z i % r s a r 2 o   o @ - 2 9 2 %   O s R s s I b ",
"a a t 6 1 > 1 9 0 h D Z s s s x Z Z Z Z y r @. .@.@.@.@.=.@.@.@. . .R R Z Z Z R s > R v.x.k.x.b Z 1. .s t 6 > + o + R 4.@.6.=.=.",
"- > > 6 t u a s s h h h Z a s Z Z Z x p 9 0 e.@.@. .{ R R K D D Z Z Z Z Z Z Z ) h > R x.g.g.g.g.g.g.s.s.g.=.e.D y % a  .K s i 9 ",
"9 r u s s s u Z Z Z Z Z Z s x Z Z Z s 2 o 2 x.) R Z Z Z Z s ) ) 6.g.v.e. .Z u 6 > + i k.g.g.g.g.g.g.i.e.g.g.g.g.=.: 6 9 > # % 1 ",
"p s h x Z Z Z Z Z s Z Z h h h h h s a > . % *.v.v.v. .R h u u r > # > > * + # @ + X 6 k.e.e.e. .6.g.g.g.g.] a @.x 2   % 2 t y u ",
"Z x R D D Z Z Z h s s a Z Z Z s a a 0 % 6 % + 6 6 1 > : - - - #   : ) R ) s s s a 9 - Z D Z D K R K  . .R x a D u * > t a b Z D ",
"t a R  .u 6 p i u y r 9 6 6 > > % + o   o % > 9 6 * Z @.s.g.g.R 2 , s.6.D Z Z Z Z i - 6 y K Z Z Z s Z u s Z s r 2 X * > 6 0 0 0 ",
"= * & * @ o o o @ 1 1 2 4 6 9 0 r y i D 6.g.k.g.i.Z g.k.g.g.=.g.u % a R h h s x h i 1 o 7 a s s s u 2 9 4 0 9 > % > > - X % - - ",
"t u u u u 9 . + i g.g.k.c.x.c.v.c.x.k.g.g.g.g.g.g.k.g.g.g.g.g.g.=.> 6 h s p u u i 9 + O % > < > > * + o . > y h Z R R R 0 i s u ",
"Z R K D Z s - u x.Z 6.g.g.x.g.g.s.g.6.6.g.6.<.x.k.R e.g.<.h g.g.<.- % 6 6 > % > 1 w a y h R R R h t a 1 o a D Z Z Z Z x s Z Z D ",
"s Z Z Z Z h 1 h x.R e.g.g.g.g.g.6.g.h D e.<.<.e.<.<.e.e.<.s i.s.R 0 o o $ - 9 a K D D D a D Z Z Z Z Z u   u Z x Z Z Z h Z Z Z D ",
"a u Z x s a > *.x.g.g.g.g.g.g.s.s.<.R R Z Z Z Z Z Z Z D D D D K Z r # > a Z D Z a x Z Z a Z Z h Z Z Z u X 9 Z Z Z Z x h s s h Z ",
"a s s s a r % ] <.k.x.s.s.6.=.) Z x D Z Z Z Z Z Z Z D Z Z Z Z Z s t * 0 ) Z Z Z a x Z Z Z Z Z Z Z Z h u o i Z Z Z a h h Z s s s ",
"a s s s s r + 2 0 6.@.R D ) @.) D h D Z Z Z Z Z Z D ) ) R D x a 0 > o > D Z Z R D h Z Z s Z Z Z Z x a u o w Z Z Z h Z D h s s s ",
"a a u r 6 * o o - u I =.6.R a u i Z Z Z Z Z Z )  .Z a u i u r > o - 6 o i R R Z Z Z Z D Z Z s a a i u t . o * 6 r a y u s a a s ",
"* $ - - y R u 3 - % % % * > > - 6 6 t u u t q 1 * $ # % % o       + % o $ 6 0 6 9 9 6 3 1 > > - * % $ O   .   . X + + - 2 6 6 1 ",
"2 o u R k.x.B.B.n.e.i 1 # o X   . o o O o X . o + $ * ; * * 6 6 6 6 6 0 0 0 r w 6 % % @ o X   % r * p R I b q a Z a y 9 > > 1 6 ",
"t O Z @.R <.4.e.<. .6.e.6.s u t 0 r r 0 X o r ] Z D D Z h a Z R ) =.=. .) R K Z R u h s y r * 2 s.Z D k.g.k.g.k.g.g.g.<.Z s  .e.",
"1 o a n.<.=.<.e.<.@.4.@.@.@.@.@.@.@. .K O 1 x.D Z Z x s Z Z ) R Z a D Z Z Z Z Z Z Z h Z Z h 2 2 k.g.e.g.) g.s.s.g.6. .g.<.g.g.=.",
"u @ 2 C.%.<.v.<.@.@.@.@.@.@.<.@.@.@. .s o - e.D a Z Z Z p ) <.Z Z x D Z Z h D Z Z Z Z Z Z x 6 % 6.v.g.g.g.g.R R g.s.g.x.g.g.s.<.",
"a # 2 b.) g.4.R @.@.@.@.]  .a ) R D s 0 o @ =.@.Z D  .Z s R D s h h h h a r R h h h s h h h 6 6 c.k.s.g.g.s.e.<.6.i.<. .Z R R D ",
"i # 7 B. .D D D D D D Z D Z R Z Z R Z s # + <.K Z  .D Z x s s a h h s s s p ] s s s s s a s 5 2 v.g.<.g.<.s D Z D Z x Z Z Z Z x ",
"0 O > R e.R D  .Z s R Z Z Z Z Z Z D s u # o R R R h s s a s s a Z h I s s s D Z s a a s s t # - R <. .R R Z Z Z h Z x Z h t p u ",
"+ % % 1 u Z Z  .b.g.x.x.6.i 9 y y 0 2 - . . 0 4.s R s s s s s s a a Z ) Z a u D ]  .D i r 1   o * > 2 6 u u i y u i u u r > > - ",
"o > > . # > 1 * 2 6 2 1 > * o O % 0 u a a r $ 6 6 s.s.6.6.) h u 4 - > > * % % - - - - - > - > 2 1 * o . # % % * - - * % o   o o ",
"a a u q * - > * % # o   O u I R <.x.x.g.g.g.u 0 * r u r 1 - - % 2 0 t u >   # * 1 6 r 9 I <.s.g.i.R 6 t q -   o 6 u y u u 9 i a ",
"s Z Z Z t i h s p u r 7 % g.x.k.g.g.i.s.6.i.<.e.a > % > 7 u a t h D R Z 1 % p <.6.t  .) k.s. .s.g.Z Z s.<.2   * p ) R Z s s R Z ",
"s Z Z Z Z u s Z s a Z 0 @ ] g.e.e.=.@.6.) s.k.k.e.6 6 R Z Z Z Z s Z Z w > u g.g.s.Z k.k.k.g.g. .g.g.g.s.t + * u R D Z Z Z Z R Z ",
"s h x Z Z x R K Z Z a r % h s.s.=.D s Z R =.) ) s > u h a y u a a p r - s x.g.g.g.@. .s.e.s.g.g.g.e.6.s - o 9 D D Z Z D D x h h ",
"a s s h x Z R Z Z Z D s * Z g.<.s a <.<.<.<. .p 0 % 1 2 > # > - # o . 6 k.g.g.x.<.Z Z Z Z D R R Z Z x 0   % r a a h s s s s a a ",
"a s a a s D Z i s Z K h * 1 r q 3 % % > % % % % * > 3 9 y a a a y -   2 <.i.g.s.x K Z Z h D Z Z a Z u % $ i D a t h s a s a a s ",
"a s s h h h s s s s h s - . @ * 2 0 y u r i h Z D K R D Z Z Z Z a 0 + + p s.e.R Z R R Z Z Z x Z Z i >   6 a R Z h a s s s s s h ",
"a h s s s s s s s s s a > 6 h  .x Z D R Z a s Z Z Z Z Z t Z s s a r % @ <. .D  . .6. .<.) s q y r -     + 8 r t e 9 i a a a a a ",
"> 6 0 y p a r u a a s u > 0 @.Z x Z Z h h h h h s s s s s s s s a s 0 + a R a 0 i a r 6 > * % + o O + o X           @ % % * - : ",
"0 0 2 o o + @ % > 6 r t - 6 K R s u a a a a i Z Z Z Z Z h a u y u t 0 # * * % o o o + % : 4 0 y a Z a u r 6 + + < r u u u y w r ",
"h Z t o - r > a a 6 o . . # * * % + * * * * - - - - * * * - - - - % o     + 1 r u 0 <.k. .) )  .R Z Z Z D s > 1 u ) D Z R Z Z x ",
"h Z s 6 2  .s D Z R s a u u r 7 6 2 - @ 6 - t u y r q 0 6 > 0 6 2 > - . % a s.R Z R R D R Z Z Z Z Z Z i R h 1 % q R D s Z Z Z x ",
"a h Z p > s D h h Z Z Z Z a Z Z Z Z a % % a R D R R D Z Z h D Z s h i % + 6 s.) Z K Z Z Z Z Z x Z Z Z Z D s > > u D s h h i h h ",
"a h Z s > t s s s a h s s s R Z Z a Z - 2 ) Z a D Z Z Z Z Z Z h p Z Z 2   > e.Z Z Z Z Z Z Z R =.D I h h h a % % 9 t p u a D h s ",
"y y 0 u 2 > b a s ) Z Z Z h s h Z s a > 2 a x Z Z Z Z Z s Z Z Z Z x y 6 . - =.D Z Z Z s D x h Z I s s p t 6 + % % & > > ; 6 t a ",
"% * # # o o + o + , 3 6 w u u y u a y * # 0 Z Z Z Z Z Z Z x x Z x h s y % o a ] Z h h s Z D h s s s s a 0 % t <.=.R a r 0 > % @ ",
"i i.s.<.a R  .a 1 % > 0 6 4 2 2 > > #   - h Z s a h s a a s s s s s s s 9 o 6  .=.s s s s D I <.=.D a 0 % 6 @.i.e.e.e.e.e.e.Z + ",
"R g.g.<.6.<. . .a 6 Z Z Z D Z Z s a >   * a s s h h s s s h h h s s s s y % % i i t ] R I h r 0 u r 2 -   1 s s s p h x Z Z a % ",
"> 9 t a x Z x a r - a R D a u a a i 0 . # t u p u a Z Z s a i a h h u p r -   # * > y y q 6 > + + o . . . o o + # % * > 1 3 6 % ",
"2 1 > ; @ # * * # o % % > > > > > - @ * % * % % % % % * - - : > > 1 1 > > . @ > - % .   , =.v.6.R a u t r q 0 1 0 0 9 9 9 8 7 6 ",
"a 0 a i - . - 9 t p a 2 s Z R D Z x p h a y 6 %   % q u u r 0 2 $ : * % # O @ * 2 6 o # Z n.x.x.v.V.Z.B.x.e.=. .=.<.<.<.<.=. .] ",
"Z R @.) r > R x h Z Z s D D Z Z Z Z Z Z Z D Z t # Z <.] s.6.<.<.a  . .) ) K s 0 % o + > a x.6.@.@.<.e.s.g.g.g.6.<.<.@.@.@.@.@.@.",
"D <.@.@.y 9 R s h Z Z Z R D Z y Z Z Z Z K K Z a % w x.e.<.@.@.@.@.@.@. .R 4.@.@.) % > b.A.V.n.4.@.@.] @.D <.@.@.4.s.@.@.e.<.@.@.",
"D  .@.R 0 w K Z Z Z Z Z R Z x t D Z Z s Z Z Z s * ] <.@.@.@.@.@.@.<.e.<.<.@.@.@.@.> 1 =.Z.@.@.R @.@.<.@.a =.@.<.b.4.@. .y c.@.R ",
"s Z K t * w R Z Z Z Z Z D Z Z Z Z Z Z s Z D Z a - I @.e.<. .@.@.<.b.e.<.<. .D  .h > * Z B.@.@.D ) @.@.@.@.c.v.B.v.@.@. .t x.R Z "
};
